<svg width="19" height="16" viewBox="0 0 19 16" fill="none" xmlns="http://www.w3.org/2000/svg">
<path d="M1.03489 16C0.840742 16 0.665405 15.9538 0.508882 15.8615C0.352373 15.7692 0.230641 15.6475 0.143685 15.4965C0.0560856 15.3468 0.00845589 15.1842 0.000795923 15.0087C-0.00686405 14.8332 0.0407657 14.6618 0.143685 14.4947L8.58579 0.498256C8.68871 0.330409 8.8232 0.205401 8.98925 0.123232C9.15532 0.0410773 9.32576 0 9.50057 0C9.67537 0 9.84562 0.0410773 10.0113 0.123232C10.177 0.205401 10.3113 0.330409 10.4142 0.498256L18.8563 14.4947C18.9592 14.6618 19.0069 14.8332 18.9992 15.0087C18.9915 15.1842 18.9439 15.3468 18.8563 15.4965C18.7687 15.6461 18.6468 15.7675 18.4906 15.8605C18.3344 15.9535 18.1593 16 17.9651 16H1.03489ZM2.69744 14.0754H16.3026L9.5 2.84743L2.69744 14.0754ZM9.5 13.2526C9.7641 13.2526 9.9879 13.1647 10.1714 12.9889C10.3549 12.813 10.4467 12.5986 10.4467 12.3456C10.4467 12.0925 10.3549 11.879 10.1714 11.7049C9.9879 11.5308 9.7641 11.4438 9.5 11.4438C9.2359 11.4438 9.0121 11.5308 8.8286 11.7049C8.64508 11.879 8.55332 12.0925 8.55332 12.3456C8.55332 12.5986 8.64508 12.813 8.8286 12.9889C9.0121 13.1647 9.2359 13.2526 9.5 13.2526ZM9.5 10.6263C9.76044 10.6263 9.97875 10.5419 10.1549 10.3731C10.3311 10.2043 10.4192 9.99513 10.4192 9.7456V7.16141C10.4192 6.91188 10.3311 6.70271 10.1549 6.53391C9.97875 6.36511 9.76044 6.28071 9.5 6.28071C9.23956 6.28071 9.02125 6.36511 8.84507 6.53391C8.66889 6.70271 8.5808 6.91188 8.5808 7.16141V9.7456C8.5808 9.99513 8.66889 10.2043 8.84507 10.3731C9.02125 10.5419 9.23956 10.6263 9.5 10.6263Z" fill="#5F5753"/>
</svg>
